# xmcd CD database file
#
# Track frame offsets:
#	150
#	22593
#	55200
#	80038
#	117074
#	143302
#	173799
#	200712
#	226422
#	254847
#
# Disc length: 3699 seconds
#
# Revision: 0
# Processed by: cddbd v1.5.2PL0 Copyright (c) Steve Scherf et al.
# Submitted via: CDex 1.51
#
DISCID=7f0e710a
DTITLE=Russ Freeman - Safe at Home
DYEAR=1959
DGENRE=Jazz
TTITLE0=The party's over
TTITLE1=Sweet and lovely
TTITLE2=Lush life
TTITLE3=Billie's bounce
TTITLE4=With a song in my heart
TTITLE5=Fan tan
TTITLE6=Safe at home
TTITLE7=Yesterday's gardenias
TTITLE8=Fungo
TTITLE9=Backfield in motion
EXTD=YEAR: 1959
EXTT0=
EXTT1=
EXTT2=
EXTT3=
EXTT4=
EXTT5=
EXTT6=
EXTT7=
EXTT8=
EXTT9=
PLAYORDER=
